HIERARCHY
ROOT hip
{
	OFFSET 0.000000 0.000000 0.000000 
	CHANNELS 6 Xposition Yposition Zposition Xrotation Zrotation Yrotation
	JOINT abdomen
	{
		OFFSET 0.000000 3.402643 0.000000 
		CHANNELS 3 Xrotation Zrotation Yrotation
		JOINT chest
		{
			OFFSET 0.000000 8.438565 -0.680529 
			CHANNELS 3 Xrotation Zrotation Yrotation
			JOINT neck
			{
				OFFSET 0.000000 10.207942 -0.272212 
				CHANNELS 3 Xrotation Zrotation Yrotation
				JOINT head
				{
					OFFSET 0.000000 3.130431 0.000000 
					CHANNELS 3 Xrotation Zrotation Yrotation
					End Site
					{
						OFFSET 0.000000 3.130435 0.000000 
					}
				}
			}
			JOINT lCollar
			{
				OFFSET 3.470700 6.669187 -0.816635 
				CHANNELS 3 Yrotation Zrotation Xrotation
				JOINT lShldr
				{
					OFFSET 3.198488 0.000000 0.000000 
					CHANNELS 3 Zrotation Yrotation Xrotation
					JOINT lForeArm
					{
						OFFSET 10.139888 0.000000 0.000000 
						CHANNELS 3 Yrotation Zrotation Xrotation
						JOINT lHand
						{
							OFFSET 8.370511 0.000000 0.000000 
							CHANNELS 3 Zrotation Yrotation Xrotation
							End Site
							{
								OFFSET 4.083176 0.000000 0.000000 
							}
						}
					}
				}
			}
			JOINT rCollar
			{
				OFFSET -3.470700 6.669187 -0.816635 
				CHANNELS 3 Yrotation Zrotation Xrotation
				JOINT rShldr
				{
					OFFSET -3.198488 0.000000 0.000000 
					CHANNELS 3 Zrotation Yrotation Xrotation
					JOINT rForeArm
					{
						OFFSET -10.139888 0.000000 0.000000 
						CHANNELS 3 Yrotation Zrotation Xrotation
						JOINT rHand
						{
							OFFSET -8.370511 0.000000 0.000000 
							CHANNELS 3 Zrotation Yrotation Xrotation
							End Site
							{
								OFFSET -4.083176 0.000000 0.000000 
							}
						}
					}
				}
			}
		}
	}
	JOINT lThigh
	{
		OFFSET 5.308129 -1.633274 1.361059 
		CHANNELS 3 Xrotation Zrotation Yrotation
		JOINT lShin
		{
			OFFSET -2.041588 -20.007561 0.000000 
			CHANNELS 3 Xrotation Zrotation Yrotation
			JOINT lFoot
			{
				OFFSET 0.000000 -19.190928 -1.224953 
				CHANNELS 3 Xrotation Yrotation Zrotation
				End Site
				{
					OFFSET 0.000000 -2.449906 4.627600 
				}
			}
		}
	}
	JOINT rThigh
	{
		OFFSET -5.308129 -1.633274 1.361059 
		CHANNELS 3 Xrotation Zrotation Yrotation
		JOINT rShin
		{
			OFFSET 2.041588 -20.007561 0.000000 
			CHANNELS 3 Xrotation Zrotation Yrotation
			JOINT rFoot
			{
				OFFSET 0.000000 -19.190928 -1.224953 
				CHANNELS 3 Xrotation Yrotation Zrotation
				End Site
				{
					OFFSET 0.000000 -2.449906 4.627600 
				}
			}
		}
	}
}
MOTION
Frames: 10
Frame Time: 0.011111
24.458160 49.241440 -113.408798 9.746188 -4.524767 -7.683258 11.826418 2.409263 7.043162 -13.338151 4.083198 2.325715 -21.155195 -9.241133 -1.135494 32.027584 23.250423 0.840340 -2.946841 -9.472683 0.034639 -65.439980 -7.136655 23.749767 -43.187771 5.824617 5.528941 8.524705 12.647240 -50.081429 7.873402 6.594518 -1.033983 50.237404 24.983664 40.793076 66.760460 -9.414018 15.520956 -8.534408 -12.637552 67.406105 -40.896370 14.637811 4.473538 23.124687 -5.663239 -3.950318 -20.684113 4.748791 -0.993021 9.872187 3.896331 2.543794 14.882740 5.925025 2.818022 -20.012152 7.609703 5.587121 
24.478498 49.227661 -112.665176 9.888687 -4.577621 -7.904800 11.618912 2.487458 7.018615 -13.239130 4.216621 2.318685 -21.132412 -9.452654 -1.125242 31.822151 23.319502 0.766362 -2.946841 -9.472683 0.034639 -66.009506 -6.928342 20.622915 -42.207901 5.501287 5.170997 8.524705 12.647240 -52.688858 7.873402 6.594518 -1.033983 49.842697 25.576767 41.384052 67.344841 -9.387365 15.808470 -8.534408 -12.637552 67.913925 -41.205303 14.656157 2.613352 20.551132 -5.755118 -3.598929 -21.206324 5.762552 -0.543136 11.161218 3.730441 2.952560 13.491389 5.942858 2.597177 -19.357971 7.437524 5.480272 
24.505724 49.219139 -111.912064 9.969635 -4.995396 -8.124857 11.497627 2.995427 7.272315 -13.152740 4.026048 2.356375 -20.871891 -9.386474 -1.212285 31.406528 23.377790 0.621355 -2.946841 -9.472683 0.034639 -66.113136 -6.533747 18.992619 -41.577202 5.291425 4.947057 8.524705 12.647240 -53.997448 7.873402 6.594518 -1.033983 49.662193 26.106903 41.656776 67.789894 -9.360428 16.022385 -8.534408 -12.637552 68.333847 -42.068882 15.058154 0.391531 19.195253 -5.809980 -3.407187 -22.152735 6.833206 0.005759 12.927368 3.876607 3.040226 11.379809 5.970997 2.301931 -18.127157 7.262611 5.323605 
24.527700 49.181416 -111.162552 10.098561 -5.381174 -8.376964 11.390287 3.403401 7.592728 -13.252543 3.802889 2.408108 -20.689642 -9.317327 -1.271990 31.105394 23.547197 0.542716 -2.946841 -9.472683 0.034639 -66.081573 -6.267513 17.179535 -40.795769 5.024944 4.673507 8.524705 12.647240 -55.325569 7.873402 6.594518 -1.033983 49.629353 26.516750 41.686855 68.033325 -9.343495 16.137400 -8.534408 -12.637552 68.148293 -42.572102 15.496123 -0.860608 17.619898 -5.841646 -3.201699 -22.355394 8.002847 0.457962 14.648872 3.936039 3.526367 9.443411 5.993508 2.031444 -17.086863 7.060964 5.173427 
24.548695 49.151234 -110.419586 10.165533 -5.501050 -8.544464 11.341500 3.460200 7.703561 -13.467734 3.810466 2.432878 -20.567461 -9.395712 -1.292837 31.002874 23.772331 0.553626 -2.946841 -9.472683 0.034639 -66.276962 -6.113648 14.139303 -39.763458 4.653123 4.299971 8.524705 12.647240 -57.913467 7.873402 6.594518 -1.033983 49.560070 26.794207 41.687088 68.234779 -9.329929 16.238333 -8.534408 -12.637552 67.806496 -42.891026 15.641527 -1.435689 16.617966 -5.881284 -3.038186 -22.532902 8.700995 0.730036 16.723949 3.681119 3.880505 7.142641 6.009558 1.707053 -15.735279 7.036263 5.078800 
24.575264 49.087276 -109.655968 10.144345 -5.560366 -8.671630 11.320511 3.427282 7.806808 -13.486867 3.868792 2.462974 -20.496164 -9.358328 -1.324822 30.826601 23.803215 0.482503 -2.946841 -9.472683 0.034639 -66.430321 -6.006037 11.676124 -38.956417 4.359455 4.028229 8.524705 12.647240 -60.452530 7.873402 6.594518 -1.033983 49.548695 27.117983 41.456444 68.520111 -9.306629 16.367746 -8.534408 -12.637552 67.660011 -43.125805 15.690167 -2.320317 16.034891 -5.885961 -2.985777 -23.298895 9.054299 1.045401 19.156116 3.329794 4.214147 4.088885 5.991385 1.274771 -14.076497 6.589890 4.824736 
24.595926 49.004616 -108.865112 10.093637 -5.681366 -8.865489 11.292033 3.417048 8.192177 -13.486880 3.884433 2.571031 -20.455196 -9.564692 -1.363692 30.708855 24.159044 0.411241 -2.946841 -9.472683 0.034639 -66.466675 -6.047508 9.116655 -38.211491 4.073543 3.769581 8.524705 12.647240 -62.932995 7.873402 6.594518 -1.033983 49.628654 27.265461 40.798882 68.763435 -9.286621 16.483086 -8.534408 -12.637552 67.269394 -43.245815 15.779095 -3.122885 15.685085 -5.905730 -2.918439 -23.940004 9.636007 1.414077 22.079517 2.988689 4.678373 -0.106498 5.940861 0.683859 -10.945286 5.366905 4.271403 
24.621840 48.908833 -108.051315 9.850240 -5.875232 -9.026760 11.502889 3.511841 8.550835 -13.467390 3.890113 2.660542 -20.560938 -10.002944 -1.344569 30.808949 24.740084 0.466563 -2.946841 -9.472683 0.034639 -66.600693 -6.388819 4.529903 -37.188080 3.676780 3.428813 8.524705 12.647240 -67.073616 7.873402 6.594518 -1.033983 49.533722 27.401939 40.264130 68.975235 -9.269797 16.595131 -8.534408 -12.637552 66.908058 -43.190701 15.789977 -4.002730 15.803391 -5.893456 -2.956709 -24.357849 10.464540 1.814966 23.207211 2.851826 4.889757 -0.105463 5.950827 0.693410 -10.566301 5.397249 4.251097 
24.661858 48.807472 -107.219467 9.635776 -5.961702 -9.102730 11.636347 3.539080 8.455286 -13.378620 3.974965 2.641240 -20.777050 -9.884969 -1.271078 30.843321 24.528639 0.557519 -2.946841 -9.472683 0.034639 -66.934715 -6.654908 -0.752376 -36.188068 3.279438 3.106595 8.524705 12.647240 -72.366592 7.873402 6.594518 -1.033983 49.447617 27.785814 40.229824 69.111786 -9.255763 16.659801 -8.534408 -12.637552 66.761581 -43.160828 15.682393 -4.080633 16.649988 -5.875901 -3.069305 -24.244825 10.098571 1.677179 24.263580 2.607650 4.962457 -0.106505 5.940865 0.683859 -9.988563 5.293795 4.186032 
24.702204 48.725800 -106.381386 9.704926 -6.061499 -9.158347 11.446758 3.618740 8.360134 -13.358913 3.985320 2.603936 -21.125006 -9.425332 -1.219812 31.164913 24.066359 0.661782 -2.946841 -9.472683 0.034639 -67.013092 -6.650161 -3.810712 -35.639664 3.054224 2.920638 8.524705 12.647240 -75.569710 7.873402 6.594518 -1.033983 49.543888 27.945112 40.302742 69.259903 -9.242712 16.734819 -8.534408 -12.637552 66.800644 -43.208790 15.711259 -2.496710 17.826895 -5.835644 -3.238816 -23.044571 8.630290 0.820500 25.056194 2.412611 5.008371 -0.105458 5.941248 0.703348 -8.902776 5.144789 4.102083 
